<mxfile host="app.diagrams.net" modified="2023-04-24T15:17:50.482Z" agent="Mozilla/5.0 (Windows NT 10.0; Win64; x64) AppleWebKit/537.36 (KHTML, like Gecko) Chrome/112.0.0.0 Safari/537.36" etag="rypw-RdcfpWkRVYPpSj3" version="21.2.1" type="github">
  <diagram id="1l_QmJXVoPfFeIxE5d74" name="Page-1">
    <mxGraphModel dx="1562" dy="980" grid="1" gridSize="10" guides="1" tooltips="1" connect="1" arrows="1" fold="1" page="1" pageScale="1" pageWidth="509" pageHeight="750" math="0" shadow="0">
      <root>
        <mxCell id="WIyWlLk6GJQsqaUBKTNV-0" />
        <mxCell id="WIyWlLk6GJQsqaUBKTNV-1" parent="WIyWlLk6GJQsqaUBKTNV-0" />
        <mxCell id="sMG2LNS1y5nzMgJAh2wD-0" value="&lt;div&gt;&lt;b&gt;Dataset&lt;/b&gt;&lt;/div&gt;&lt;div&gt;(Variable, Columns, Type)&lt;/div&gt;&lt;div&gt;Stream Flow, 2, csv&lt;/div&gt;&lt;div&gt;FIBs, 5, csv&lt;/div&gt;&lt;div&gt;Nutrients, 3, csv&lt;/div&gt;&lt;div&gt;Rainfall, 2, csv&lt;/div&gt;&lt;div&gt;Temperature, 4, csv&lt;/div&gt;" style="shape=parallelogram;perimeter=parallelogramPerimeter;whiteSpace=wrap;html=1;fixedSize=1;fillColor=#fff2cc;strokeColor=#d6b656;" parent="WIyWlLk6GJQsqaUBKTNV-1" vertex="1">
          <mxGeometry x="10" y="5" width="230" height="140" as="geometry" />
        </mxCell>
        <mxCell id="sMG2LNS1y5nzMgJAh2wD-2" value="&lt;div&gt;&lt;b&gt;Data Wrangling&lt;/b&gt;&lt;/div&gt;&lt;div style=&quot;font-size: 11px;&quot;&gt;&lt;font style=&quot;font-size: 11px;&quot;&gt;Use Pandas data frame for synchronizing continuous and non-continuous datasets. Use of time-series aggregating functions&lt;/font&gt;&lt;/div&gt;&lt;div style=&quot;font-size: 11px;&quot;&gt;&lt;font style=&quot;font-size: 11px;&quot;&gt;&lt;br&gt;&lt;/font&gt;&lt;/div&gt;&lt;div style=&quot;&quot;&gt;&lt;span style=&quot;background-color: initial;&quot;&gt;&lt;span style=&quot;font-size: 11px;&quot;&gt;Output of this steps will contains all variables in one data frame with same timestep. Variables initially having smaller timesteps will be averaged/cumulated to&amp;nbsp; a week and those having coarser timestep, i.e., more than a week, will be disaggregated/weighted to one week accordingly. Final Data frame will contain FIBs, stream flow, average temperature, rainfall, total dissolved solids (TSS), total suspended solids (TSS). Time lagged climate variables (rainfall and temperature)&amp;nbsp; are also included i.e., variable “Temp_lag” for week ‘i’ will be temp of week ‘i-1’.&lt;/span&gt;&lt;/span&gt;&lt;br&gt;&lt;/div&gt;" style="rounded=1;whiteSpace=wrap;html=1;fillColor=#f5f5f5;strokeColor=#666666;fontColor=#333333;spacingLeft=13;spacingRight=13;" parent="WIyWlLk6GJQsqaUBKTNV-1" vertex="1">
          <mxGeometry x="260" y="75" width="240" height="342" as="geometry" />
        </mxCell>
        <mxCell id="sMG2LNS1y5nzMgJAh2wD-3" value="&lt;b&gt;New Data Frame&lt;br&gt;&lt;/b&gt;Timeseries now converted to&lt;br&gt;events having all the&lt;br&gt;parameters&amp;nbsp;for the week of year.&amp;nbsp;" style="shape=dataStorage;whiteSpace=wrap;html=1;fixedSize=1;fillColor=#dae8fc;strokeColor=#6c8ebf;size=10;" parent="WIyWlLk6GJQsqaUBKTNV-1" vertex="1">
          <mxGeometry x="10" y="169" width="200" height="146" as="geometry" />
        </mxCell>
        <mxCell id="sMG2LNS1y5nzMgJAh2wD-31" style="edgeStyle=orthogonalEdgeStyle;rounded=0;orthogonalLoop=1;jettySize=auto;html=1;exitX=0.5;exitY=1;exitDx=0;exitDy=0;entryX=0;entryY=0.5;entryDx=0;entryDy=0;" parent="WIyWlLk6GJQsqaUBKTNV-1" source="sMG2LNS1y5nzMgJAh2wD-5" target="sMG2LNS1y5nzMgJAh2wD-7" edge="1">
          <mxGeometry relative="1" as="geometry">
            <mxPoint x="60" y="379" as="targetPoint" />
            <Array as="points">
              <mxPoint x="30" y="379" />
              <mxPoint x="30" y="485" />
            </Array>
          </mxGeometry>
        </mxCell>
        <mxCell id="sMG2LNS1y5nzMgJAh2wD-5" value="" style="ellipse;whiteSpace=wrap;html=1;aspect=fixed;fillColor=#f8cecc;strokeColor=#b85450;" parent="WIyWlLk6GJQsqaUBKTNV-1" vertex="1">
          <mxGeometry x="10" y="335" width="44" height="44" as="geometry" />
        </mxCell>
        <mxCell id="sMG2LNS1y5nzMgJAh2wD-6" value="&lt;div&gt;&lt;b&gt;Statistical Analysis&lt;/b&gt; Descriptive Statistics&lt;/div&gt;&lt;div&gt;and&lt;/div&gt;&lt;div&gt;Data Visualization&lt;/div&gt;" style="rounded=0;whiteSpace=wrap;html=1;fillColor=#d5e8d4;strokeColor=#82b366;" parent="WIyWlLk6GJQsqaUBKTNV-1" vertex="1">
          <mxGeometry x="90" y="327" width="150" height="90" as="geometry" />
        </mxCell>
        <mxCell id="sMG2LNS1y5nzMgJAh2wD-7" value="" style="rhombus;whiteSpace=wrap;html=1;fillColor=#f5f5f5;fontColor=#333333;strokeColor=#666666;" parent="WIyWlLk6GJQsqaUBKTNV-1" vertex="1">
          <mxGeometry x="60" y="455" width="60" height="60" as="geometry" />
        </mxCell>
        <mxCell id="sMG2LNS1y5nzMgJAh2wD-9" value="&lt;div style=&quot;border-color: var(--border-color);&quot;&gt;&lt;b style=&quot;border-color: var(--border-color);&quot;&gt;Data Analysis with Machine Learning Model&lt;/b&gt;&lt;/div&gt;&lt;div style=&quot;border-color: var(--border-color);&quot;&gt;&lt;br style=&quot;border-color: var(--border-color);&quot;&gt;&lt;/div&gt;&lt;div style=&quot;border-color: var(--border-color);&quot;&gt;PCA to identify significant parameters in the given dataset.&lt;/div&gt;&lt;div style=&quot;border-color: var(--border-color);&quot;&gt;&lt;br style=&quot;border-color: var(--border-color);&quot;&gt;&lt;/div&gt;&lt;div style=&quot;border-color: var(--border-color);&quot;&gt;Machine Learning: Model for the&amp;nbsp; classification of the variable “AMRStat”. Suggesting use of Random Forest Classifier.&amp;nbsp;&lt;/div&gt;&lt;div style=&quot;border-color: var(--border-color);&quot;&gt;&lt;br style=&quot;border-color: var(--border-color);&quot;&gt;&lt;/div&gt;&lt;div style=&quot;border-color: var(--border-color);&quot;&gt;Multi-linear regression for dataset&lt;/div&gt;" style="rounded=0;whiteSpace=wrap;html=1;fillColor=#f5f5f5;fontColor=#333333;strokeColor=#666666;" parent="WIyWlLk6GJQsqaUBKTNV-1" vertex="1">
          <mxGeometry x="90" y="445" width="410" height="210" as="geometry" />
        </mxCell>
        <mxCell id="sMG2LNS1y5nzMgJAh2wD-10" value="&lt;p style=&quot;margin-top: 0pt; margin-bottom: 0pt; margin-left: 0in; direction: ltr; unicode-bidi: embed; word-break: normal;&quot;&gt;&lt;b&gt;AMR Forecasting Model&lt;/b&gt;&lt;/p&gt;" style="rounded=0;whiteSpace=wrap;html=1;fillColor=#f8cecc;strokeColor=#b85450;" parent="WIyWlLk6GJQsqaUBKTNV-1" vertex="1">
          <mxGeometry x="181.5" y="685" width="227" height="60" as="geometry" />
        </mxCell>
        <mxCell id="sMG2LNS1y5nzMgJAh2wD-34" value="" style="endArrow=classic;html=1;rounded=0;entryX=0.5;entryY=0;entryDx=0;entryDy=0;exitX=0.5;exitY=1;exitDx=0;exitDy=0;" parent="WIyWlLk6GJQsqaUBKTNV-1" source="sMG2LNS1y5nzMgJAh2wD-9" target="sMG2LNS1y5nzMgJAh2wD-10" edge="1">
          <mxGeometry width="50" height="50" relative="1" as="geometry">
            <mxPoint x="300" y="735" as="sourcePoint" />
            <mxPoint x="560" y="399" as="targetPoint" />
          </mxGeometry>
        </mxCell>
        <mxCell id="sMG2LNS1y5nzMgJAh2wD-36" value="" style="endArrow=classic;html=1;rounded=0;entryX=0.5;entryY=0;entryDx=0;entryDy=0;exitX=0.11;exitY=0.998;exitDx=0;exitDy=0;exitPerimeter=0;" parent="WIyWlLk6GJQsqaUBKTNV-1" source="sMG2LNS1y5nzMgJAh2wD-3" target="sMG2LNS1y5nzMgJAh2wD-5" edge="1">
          <mxGeometry width="50" height="50" relative="1" as="geometry">
            <mxPoint x="510" y="439" as="sourcePoint" />
            <mxPoint x="560" y="389" as="targetPoint" />
          </mxGeometry>
        </mxCell>
        <mxCell id="sMG2LNS1y5nzMgJAh2wD-42" value="" style="shape=image;html=1;verticalLabelPosition=bottom;verticalAlign=top;imageAspect=1;aspect=fixed;image=img/clipart/Gear_128x128.png" parent="WIyWlLk6GJQsqaUBKTNV-1" vertex="1">
          <mxGeometry x="460" y="455" width="25.57" height="30" as="geometry" />
        </mxCell>
        <mxCell id="Qd3qX28sv-r0yBDY4MxV-3" value="Assign Unique ID to Sample" style="shape=hexagon;perimeter=hexagonPerimeter2;whiteSpace=wrap;html=1;fixedSize=1;" parent="WIyWlLk6GJQsqaUBKTNV-1" vertex="1">
          <mxGeometry x="260" y="5" width="240" height="50" as="geometry" />
        </mxCell>
        <mxCell id="Qd3qX28sv-r0yBDY4MxV-5" value="" style="endArrow=classic;html=1;rounded=0;entryX=0.5;entryY=0;entryDx=0;entryDy=0;" parent="WIyWlLk6GJQsqaUBKTNV-1" target="sMG2LNS1y5nzMgJAh2wD-2" edge="1">
          <mxGeometry width="50" height="50" relative="1" as="geometry">
            <mxPoint x="380" y="55" as="sourcePoint" />
            <mxPoint x="380" y="65" as="targetPoint" />
          </mxGeometry>
        </mxCell>
        <mxCell id="Qd3qX28sv-r0yBDY4MxV-7" value="" style="endArrow=classic;html=1;rounded=0;entryX=0.953;entryY=0.507;entryDx=0;entryDy=0;entryPerimeter=0;exitX=0.005;exitY=0.49;exitDx=0;exitDy=0;exitPerimeter=0;" parent="WIyWlLk6GJQsqaUBKTNV-1" source="sMG2LNS1y5nzMgJAh2wD-2" target="sMG2LNS1y5nzMgJAh2wD-3" edge="1">
          <mxGeometry width="50" height="50" relative="1" as="geometry">
            <mxPoint x="210" y="295" as="sourcePoint" />
            <mxPoint x="260" y="245" as="targetPoint" />
          </mxGeometry>
        </mxCell>
        <mxCell id="Qd3qX28sv-r0yBDY4MxV-8" value="" style="endArrow=classic;html=1;rounded=0;entryX=-0.006;entryY=0.116;entryDx=0;entryDy=0;entryPerimeter=0;exitX=0.935;exitY=0.784;exitDx=0;exitDy=0;exitPerimeter=0;" parent="WIyWlLk6GJQsqaUBKTNV-1" source="sMG2LNS1y5nzMgJAh2wD-0" target="sMG2LNS1y5nzMgJAh2wD-2" edge="1">
          <mxGeometry width="50" height="50" relative="1" as="geometry">
            <mxPoint x="220" y="215" as="sourcePoint" />
            <mxPoint x="270" y="165" as="targetPoint" />
          </mxGeometry>
        </mxCell>
        <mxCell id="Qd3qX28sv-r0yBDY4MxV-9" value="" style="endArrow=classic;html=1;rounded=0;exitX=1.024;exitY=0.453;exitDx=0;exitDy=0;exitPerimeter=0;" parent="WIyWlLk6GJQsqaUBKTNV-1" source="sMG2LNS1y5nzMgJAh2wD-5" edge="1">
          <mxGeometry width="50" height="50" relative="1" as="geometry">
            <mxPoint x="40" y="405" as="sourcePoint" />
            <mxPoint x="90" y="355" as="targetPoint" />
          </mxGeometry>
        </mxCell>
      </root>
    </mxGraphModel>
  </diagram>
</mxfile>
